<?xml version="1.0" standalone="no"?>
<!DOCTYPE svg PUBLIC "-//W3C//DTD SVG 20010904//EN"
 "http://www.w3.org/TR/2001/REC-SVG-20010904/DTD/svg10.dtd">
<svg version="1.0" xmlns="http://www.w3.org/2000/svg"
 width="669.000000pt" height="383.000000pt" viewBox="0 0 669.000000 383.000000"
 preserveAspectRatio="xMidYMid meet">

<g transform="translate(0.000000,383.000000) scale(0.100000,-0.100000)"
fill="#000000" stroke="none">
<path d="M5520 3801 c-42 -79 45 -438 256 -1067 57 -171 104 -316 104 -322 0
-7 -8 -12 -17 -12 -13 0 -32 30 -64 98 -57 118 -111 182 -187 219 -119 58
-310 41 -747 -68 -88 -22 -244 -65 -347 -95 -103 -29 -192 -54 -197 -54 -6 0
-44 22 -86 49 -99 65 -257 123 -286 106 -14 -9 -11 -93 7 -185 8 -45 14 -83
12 -85 -5 -4 -131 -45 -139 -45 -4 0 -10 11 -13 25 -8 32 -61 92 -97 111 -33
16 -131 19 -160 3 -17 -9 -26 -4 -60 35 -24 27 -57 51 -84 62 -43 16 -46 16
-102 -6 -111 -44 -270 -129 -374 -198 -130 -88 -211 -156 -436 -364 -289 -269
-472 -419 -738 -607 -249 -175 -351 -202 -479 -127 -82 48 -167 167 -371 516
-143 247 -211 348 -249 371 -98 62 -328 -50 -409 -199 -15 -27 -31 -81 -38
-123 -15 -96 -6 -433 21 -759 11 -135 20 -299 20 -366 0 -151 -12 -177 -145
-323 -52 -57 -99 -119 -105 -137 -29 -87 58 -122 328 -131 l153 -6 52 -43 c61
-49 93 -64 145 -64 54 0 426 67 581 105 138 34 172 51 206 102 l20 30 710 141
c907 182 874 176 1030 175 160 -1 263 -25 455 -108 155 -66 226 -79 377 -64
132 12 262 38 498 99 404 104 592 194 610 293 9 47 -30 158 -121 347 -106 220
-202 386 -251 435 -126 126 -352 95 -748 -103 -169 -84 -277 -146 -635 -367
-328 -202 -479 -290 -618 -359 -138 -69 -147 -51 -11 21 156 82 321 186 574
363 291 203 341 236 505 334 79 47 137 86 128 86 -21 0 -358 -119 -678 -240
-516 -194 -1282 -510 -1574 -649 -71 -33 -130 -61 -131 -61 -1 0 0 25 3 55 l4
55 -38 16 c-28 12 -54 14 -94 10 l-55 -6 65 36 c141 78 888 445 1115 548 741
336 1625 688 2037 811 l48 14 20 -68 c11 -38 34 -101 50 -142 17 -40 27 -76
23 -80 -5 -3 -53 -23 -108 -44 -55 -20 -101 -38 -103 -39 -1 -2 34 -1 78 2 71
4 85 2 135 -22 59 -30 83 -58 149 -181 44 -81 120 -186 168 -233 l34 -32 150
74 c358 179 581 344 642 476 25 54 25 56 12 150 -18 136 -18 141 6 150 19 8
26 -5 94 -188 141 -381 325 -780 439 -953 56 -85 121 -149 151 -149 92 0 21
341 -220 1063 l-116 348 41 18 c139 61 106 261 -43 261 -23 0 -52 -4 -65 -9
-25 -10 -26 -7 -92 172 -142 383 -325 784 -435 952 -93 144 -162 197 -190 146z
m138 -298 c72 -142 206 -483 357 -909 40 -112 43 -125 27 -131 -9 -3 -39 -14
-65 -25 -36 -14 -49 -15 -52 -5 -205 581 -358 1103 -338 1153 10 27 21 14 71
-83z m-95 -825 c46 -14 135 -91 167 -145 20 -34 17 -33 -27 15 -40 42 -55 52
-82 52 -28 0 -34 -5 -48 -37 -22 -54 -12 -192 22 -308 15 -49 28 -96 29 -104
2 -22 -690 -291 -714 -276 -27 17 -121 330 -135 451 l-7 60 134 41 c73 23 153
47 178 54 25 7 51 17 58 22 17 13 15 44 -3 51 -8 3 -91 -18 -183 -48 -133 -42
-168 -50 -170 -39 -10 43 89 88 348 156 218 58 361 76 433 55z m771 -194 c19
-19 21 -48 4 -61 -7 -6 -123 -49 -258 -96 -135 -47 -253 -88 -262 -92 -28 -11
-24 56 5 83 18 17 449 179 484 181 6 1 19 -6 27 -15z m-1674 -38 c0 -33 -2
-35 -72 -60 -40 -14 -154 -55 -254 -90 -440 -156 -915 -347 -1354 -543 -236
-105 -944 -452 -937 -459 2 -2 91 37 198 87 572 267 1244 548 1804 754 241 89
603 215 616 215 5 0 9 -19 9 -43 l0 -43 -122 -38 c-723 -224 -1999 -779 -3443
-1496 -526 -261 -726 -369 -824 -443 -41 -30 -66 -41 -101 -45 -28 -2 -50 0
-54 6 -21 35 181 182 533 390 113 66 219 134 237 152 51 50 76 111 77 185 0
59 -13 96 -183 520 -101 251 -190 466 -200 477 -18 23 -63 28 -112 14 -49 -14
-31 11 27 39 42 21 63 26 89 21 55 -10 81 -49 305 -446 163 -288 218 -373 273
-427 76 -75 173 -104 274 -83 85 18 143 46 284 140 250 166 424 303 729 578
152 138 362 314 367 309 1 -1 7 -36 13 -77 6 -41 13 -89 17 -107 6 -30 3 -34
-41 -60 -147 -87 -663 -438 -700 -476 -5 -5 15 4 45 20 706 390 1418 702 2225
974 143 49 263 88 268 89 4 0 7 -15 7 -34z m-1435 -13 c-4 -16 -7 -29 -8 -29
-1 -1 -47 -24 -102 -52 -55 -28 -124 -65 -152 -82 l-53 -30 0 25 c0 28 17 40
188 135 123 69 137 72 127 33z m20 -236 c9 -44 13 -82 9 -87 -5 -4 -80 -43
-166 -87 l-156 -80 -11 62 c-6 34 -11 85 -11 113 0 61 5 66 184 159 l121 62 6
-32 c4 -18 15 -67 24 -110z m3119 -257 c113 -340 166 -512 206 -671 29 -113
38 -199 23 -199 -37 0 -242 494 -427 1028 l-36 103 28 10 c81 32 97 36 104 25
4 -6 50 -139 102 -296z m-593 -26 c21 -25 68 -46 90 -39 19 7 20 5 6 -22 -44
-85 -216 -205 -499 -349 l-188 -95 -61 83 c-54 73 -59 83 -42 90 213 86 458
209 594 298 41 26 77 49 80 49 4 1 12 -6 20 -15z m-1127 -417 c38 -28 16 -49
-99 -92 -188 -70 -294 -120 -802 -377 -271 -137 -493 -245 -493 -241 0 5 37
27 83 50 79 41 167 91 662 383 241 142 412 230 511 265 78 28 112 31 138 12z
m113 -213 c11 -29 -10 -45 -112 -83 -137 -52 -336 -143 -685 -311 -162 -79
-319 -153 -348 -166 -103 -46 -75 -23 58 49 74 41 241 134 370 207 276 157
491 268 575 298 75 26 133 28 142 6z m100 -200 c12 -31 -13 -48 -153 -105 -76
-31 -300 -127 -497 -213 -479 -209 -482 -208 -59 19 530 284 689 351 709 299z
m111 -183 c21 -13 10 -43 -25 -67 -17 -11 -143 -63 -280 -114 -136 -51 -309
-117 -382 -146 -215 -85 -183 -60 89 71 157 76 569 263 580 264 3 1 11 -3 18
-8z"/>
</g>
</svg>
