<svg width="94" height="25" viewBox="0 0 94 25" fill="none" xmlns="http://www.w3.org/2000/svg">
<g clip-path="url(#clip0_134_1575)">
<path d="M19.783 24.1638C18.75 24.1638 18.0386 23.9244 17.6486 23.4455C17.2587 22.9667 17.0672 22.351 17.0672 21.6053C17.0672 21.1401 17.1014 20.6408 17.1629 20.114C17.2245 19.5872 17.3203 19.0468 17.4366 18.5064C17.5529 17.9659 17.6692 17.4255 17.7855 16.8987C17.9018 16.372 18.0249 15.8726 18.1549 15.4074C17.7649 15.1748 17.2929 14.9696 16.7388 14.7849C16.1847 14.607 15.6853 14.4976 15.2475 14.477C14.6044 16.3651 13.9614 17.9386 13.332 19.2041C12.6958 20.4697 12.0185 21.489 11.3002 22.2621C10.5751 23.0351 9.76785 23.5892 8.87853 23.9107C7.9892 24.2323 6.9699 24.3964 5.8343 24.3964C5.21177 24.3964 4.60976 24.2938 4.0146 24.0886C3.41944 23.8834 2.879 23.5687 2.38645 23.1377C1.8939 22.7136 1.50397 22.18 1.20296 21.5506C0.908802 20.9212 0.758301 20.1756 0.758301 19.3204C0.758301 18.3353 0.990894 17.3708 1.45608 16.413C1.92127 15.4553 2.59168 14.6002 3.47416 13.834C4.34981 13.0746 5.417 12.459 6.6689 11.9938C7.92079 11.5286 9.32319 11.296 10.8761 11.296H11.6902C12.0254 11.296 12.299 11.3097 12.5042 11.337C12.9147 10.0167 13.4551 8.70326 14.1119 7.38296C14.7686 6.06265 15.5964 4.89285 16.5883 3.85986C17.5802 2.82687 18.75 1.98544 20.0977 1.34239C21.4385 0.699334 23.0051 0.370968 24.7838 0.370968H25.3653C25.5979 0.370968 25.8441 0.38465 26.1041 0.412014C26.364 0.439378 26.624 0.466741 26.8771 0.487264C27.1371 0.514628 27.3423 0.541992 27.4996 0.562515C26.6992 2.26592 25.9125 4.04457 25.1327 5.89163C24.3596 7.73869 23.6687 9.55155 23.0599 11.337C22.451 13.1157 21.9585 14.8191 21.5685 16.4336C21.1786 18.048 20.9734 19.4641 20.946 20.675C20.9734 20.9623 21.0486 21.1743 21.1786 21.3112C21.3086 21.4548 21.5275 21.5232 21.8353 21.5232H23.6961L22.8067 24.157H19.783V24.1638ZM4.1309 18.78C4.1309 19.5804 4.32929 20.1687 4.7329 20.545C5.13652 20.9212 5.65643 21.1059 6.29948 21.1059C6.83992 21.1059 7.33931 20.9828 7.79081 20.7365C8.24232 20.4903 8.6733 20.1003 9.0906 19.553C9.50106 19.0126 9.90467 18.3011 10.2946 17.4187C10.6845 16.543 11.0813 15.469 11.4986 14.2034C11.3413 14.176 11.1634 14.1555 10.9582 14.1487C10.753 14.135 10.5819 14.1282 10.452 14.1282C9.52158 14.1282 8.66646 14.2581 7.89343 14.5181C7.1204 14.778 6.44998 15.1269 5.89587 15.5648C5.34175 16.0026 4.91077 16.502 4.59608 17.0561C4.28824 17.6102 4.1309 18.1848 4.1309 18.78ZM16.1026 11.768C16.2599 11.768 16.4652 11.7954 16.7251 11.8433C16.9851 11.898 17.245 11.9596 17.5187 12.0348C17.7923 12.1101 18.0591 12.199 18.3327 12.2879C18.6064 12.3769 18.8321 12.459 19.01 12.541C19.6804 10.3998 20.3577 8.5596 21.0418 7.04091C21.7259 5.51537 22.5194 4.20875 23.4224 3.12788C22.6494 3.23049 21.9243 3.4494 21.2538 3.78461C20.5834 4.11982 19.9404 4.62605 19.3384 5.29646C18.7295 5.96688 18.1549 6.83568 17.6144 7.89603C17.074 8.95638 16.5678 10.2493 16.1026 11.768Z" fill="#BF3A33"/>
<path d="M26.9522 24.6291C25.7413 24.6291 24.8793 24.4034 24.3731 23.9519C23.8669 23.5004 23.6138 22.8573 23.6138 22.0364C23.6138 21.6465 23.6685 21.2086 23.7711 20.7161C23.8737 20.2235 24.0311 19.6831 24.2363 19.0879L25.9055 13.8546C25.9807 13.5946 26.0902 13.2526 26.2339 12.8284C26.3775 12.4043 26.5075 11.9665 26.6238 11.5081C26.7401 11.0566 26.8427 10.6188 26.9316 10.1947C27.0206 9.77053 27.0685 9.4148 27.0685 9.12748H30.9404C30.9404 9.38744 30.8994 9.70896 30.8241 10.0989C30.7489 10.4888 30.6531 10.8925 30.5505 11.3166C30.4479 11.7407 30.3316 12.1717 30.2016 12.5959C30.0716 13.02 29.9553 13.4031 29.8527 13.7383L28.1835 18.8895C28.0057 19.43 27.8483 19.9088 27.7183 20.3261C27.5884 20.7366 27.5268 21.0376 27.5268 21.2155C27.5268 21.6054 27.7047 21.797 28.0672 21.797C28.765 21.797 29.3875 21.3454 29.9485 20.4424C30.5026 19.5394 31.1183 18.0139 31.7887 15.8727L33.9231 9.09328H39.4232L38.6844 11.344H37.1726L35.7018 15.8795C35.0792 17.7881 34.4157 19.3205 33.7042 20.4698C32.9927 21.6191 32.2607 22.5016 31.5151 23.1241C30.7626 23.7466 30.0032 24.1502 29.2302 24.3418C28.4572 24.5333 27.691 24.6291 26.9453 24.6291" fill="#BF3A33"/>
<path d="M40.9352 24.164C39.7448 24.164 38.876 23.9656 38.3219 23.562C37.7678 23.1652 37.4873 22.4948 37.4873 21.5645C37.4873 20.894 37.6173 20.121 37.8772 19.2385C38.0825 18.616 38.2877 17.9866 38.4998 17.3367C38.705 16.6937 38.9376 15.9754 39.1975 15.1887C39.4575 14.402 39.738 13.5126 40.0527 12.5344C40.3674 11.5561 40.7231 10.4068 41.1404 9.08654H45.1287C45.0261 9.37386 44.8345 9.92114 44.5677 10.7352C44.2941 11.5493 43.9999 12.4455 43.6784 13.4306C43.3569 14.4088 43.0353 15.3734 42.7275 16.3174C42.4196 17.2615 42.1734 18.0003 41.9887 18.5476C41.6808 19.4506 41.5235 20.0321 41.5235 20.292C41.5235 20.6546 41.585 20.9419 41.715 21.1608C41.845 21.3798 42.1186 21.4892 42.5291 21.4892H44.3146L43.3432 24.164H40.942H40.9352ZM43.1448 2.85442H47.1741L45.9359 6.41856H41.9066L43.1448 2.85442Z" fill="#BF3A33"/>
<path d="M51.9422 21.9132C51.4223 22.8436 50.8135 23.4935 50.102 23.8698C49.3905 24.246 48.7133 24.4307 48.0702 24.4307C47.0099 24.4307 46.2095 24.0955 45.6691 23.4251C45.1286 22.7547 44.855 21.838 44.855 20.675C44.855 19.5121 45.0534 18.2533 45.457 16.8988C45.8538 15.5443 46.4489 14.2856 47.222 13.1226C47.995 11.9596 48.9527 10.9951 50.0883 10.2357C51.2239 9.47637 52.5305 9.09328 54.0014 9.09328H59.1184L55.7458 19.4368C55.6911 19.6147 55.6295 19.8199 55.5543 20.0388C55.479 20.2577 55.438 20.4698 55.438 20.675C55.438 20.8803 55.5132 21.0787 55.6705 21.2565C55.8279 21.4412 56.0947 21.5302 56.4846 21.5302H58.188L57.2987 24.1639H54.3502C53.5772 24.1639 53.0094 23.9382 52.6468 23.4867C52.2843 23.0352 52.1064 22.5084 52.1064 21.9201H51.9491L51.9422 21.9132ZM49.7326 21.6054C50.1704 21.6054 50.6082 21.2565 51.0529 20.5587C51.4907 19.861 51.908 19.0058 52.2911 18.0002C52.681 16.9946 53.0436 15.9206 53.3925 14.785C53.7414 13.6494 54.0561 12.6301 54.3434 11.7202H53.5704C52.9273 11.7202 52.3322 12.0075 51.7917 12.589C51.2513 13.1705 50.7724 13.8751 50.3551 14.7029C49.9447 15.5306 49.6026 16.4063 49.329 17.3366C49.0553 18.267 48.8706 19.0948 48.768 19.8131C48.6928 20.1004 48.6517 20.2646 48.6517 20.3193C48.6517 20.8392 48.7543 21.1813 48.9596 21.3454C49.1648 21.5165 49.4247 21.5986 49.7326 21.5986" fill="#BF3A33"/>
<path d="M62.5182 24.164C61.3279 24.164 60.4522 23.9656 59.8844 23.562C59.3166 23.1583 59.0293 22.4948 59.0293 21.5644C59.0293 21.2018 59.0772 20.8119 59.1661 20.3809C59.255 19.9568 59.3782 19.4847 59.5355 18.9648C59.6108 18.787 59.7408 18.4107 59.9255 17.8429C60.1033 17.2751 60.3222 16.6184 60.5685 15.8659C60.8148 15.1202 61.0679 14.3403 61.321 13.5399C61.581 12.7395 61.8136 12.0007 62.0188 11.3303H60.3496L61.1226 9.07963H62.7097C62.9423 8.38185 63.1407 7.76617 63.3117 7.23941C63.4759 6.71266 63.6675 6.09697 63.8727 5.39919H67.861L66.6228 9.07963H69.2223L68.3672 11.3303H65.8908L63.4896 18.8075C63.257 19.56 63.1407 20.0594 63.1407 20.3193C63.1407 20.6545 63.1954 20.9419 63.3186 21.1745C63.4349 21.4071 63.7085 21.5233 64.1532 21.5233H66.2465L65.1998 24.1571H62.525L62.5182 24.164Z" fill="#BF3A33"/>
<path d="M66.8965 20.5177C66.8965 18.9648 67.1359 17.4804 67.6148 16.0643C68.0937 14.6414 68.7299 13.3963 69.5303 12.3291C70.3306 11.2551 71.2679 10.4 72.3419 9.75007C73.4159 9.10701 74.5447 8.77865 75.735 8.77865C76.2276 8.77865 76.7201 8.8539 77.2263 9.01124C77.7326 9.16858 78.1841 9.40802 78.5809 9.72954C78.9776 10.0511 79.306 10.4615 79.5523 10.9472C79.7985 11.4398 79.9217 12.0076 79.9217 12.6506C79.9217 14.0462 79.6959 15.4417 79.2444 16.8373C78.7929 18.2329 78.1841 19.4916 77.4247 20.6135C76.6654 21.7354 75.7624 22.6521 74.7294 23.3636C73.6964 24.075 72.595 24.4308 71.4389 24.4308C69.9681 24.4308 68.8462 24.075 68.0663 23.3636C67.2864 22.6521 66.9033 21.7012 66.9033 20.5177M76.0087 12.849C76.0087 12.4386 75.9129 12.1307 75.7213 11.9392C75.5298 11.7476 75.2903 11.645 75.003 11.645C74.5378 11.645 74.059 11.9939 73.5664 12.6917C73.0739 13.3895 72.6224 14.2104 72.2119 15.1544C71.8015 16.0985 71.4594 17.0494 71.1858 18.0003C70.9121 18.958 70.7753 19.7037 70.7753 20.2509C70.7753 20.6888 70.8711 21.0171 71.0626 21.236C71.2542 21.455 71.4936 21.5644 71.7809 21.5644C72.0683 21.5644 72.3693 21.4002 72.6908 21.0787C73.0123 20.7572 73.327 20.3262 73.6417 19.7994C73.9495 19.2727 74.2505 18.6844 74.531 18.0345C74.8183 17.3914 75.0646 16.7415 75.2835 16.0985C75.5024 15.4554 75.6803 14.8466 75.8103 14.2788C75.9402 13.711 76.0018 13.2321 76.0018 12.8422" fill="#BF3A33"/>
<path d="M89.2527 24.1639C88.3497 24.1639 87.563 23.9861 86.8926 23.6235C86.2222 23.2609 85.887 22.5495 85.887 21.496C85.887 21.1334 85.9622 20.6135 86.1196 19.9294C86.2769 19.2453 86.5027 18.4654 86.7968 17.5829C87.091 16.7073 87.4536 15.7564 87.8845 14.7371C88.3087 13.7178 88.7807 12.6916 89.3006 11.6587H86.6258C86.4958 11.9939 86.3385 12.4727 86.1401 13.0953C85.9486 13.7178 85.7228 14.4087 85.4628 15.1681C85.2029 15.9343 84.9429 16.721 84.6898 17.535C84.4299 18.3491 84.1699 19.1358 83.9168 19.8952C83.6568 20.6545 83.4242 21.3386 83.219 21.9475C83.0138 22.5563 82.8564 23.0283 82.7538 23.3635C82.5965 23.904 82.1723 24.1776 81.4746 24.1776H78.8818L84.9224 6.12431C85.025 6.12431 85.2508 6.13115 85.5997 6.14483C85.9486 6.15852 86.3111 6.16536 86.6874 6.16536H88.4524L87.4809 9.14802H93.9935C93.0632 11.0088 92.3243 12.5617 91.7839 13.8204C91.2435 15.0723 90.8262 16.1121 90.5457 16.9399C90.2584 17.7676 90.0737 18.4244 89.9847 18.9169C89.8958 19.4095 89.8479 19.8199 89.8479 20.1551C89.8479 20.7503 89.9847 21.1334 90.2515 21.2976C90.5252 21.4686 90.8262 21.5507 91.1614 21.5507H93.4873L92.4817 24.1845H89.2664L89.2527 24.1639Z" fill="#BF3A33"/>
</g>
<defs>
<clipPath id="clip0_134_1575">
<rect width="94" height="24.2581" fill="white" transform="translate(0 0.370968)"/>
</clipPath>
</defs>
</svg>
